<?xml version="1.0" encoding="UTF-8" standalone="no"?>
<svg
   viewBox="0 0 320.05237 512"
   version="1.1"
   id="svg134"
   sodipodi:docname="person-solid.svg"
   inkscape:version="1.2 (dc2aeda, 2022-05-15)"
   inkscape:export-filename="male.png"
   inkscape:export-xdpi="96"
   inkscape:export-ydpi="96"
   width="320.05237"
   height="512"
   xmlns:inkscape="http://www.inkscape.org/namespaces/inkscape"
   xmlns:sodipodi="http://sodipodi.sourceforge.net/DTD/sodipodi-0.dtd"
   xmlns="http://www.w3.org/2000/svg"
   xmlns:svg="http://www.w3.org/2000/svg">
  <defs
     id="defs138" />
  <sodipodi:namedview
     id="namedview136"
     pagecolor="#ffffff"
     bordercolor="#000000"
     borderopacity="0.25"
     inkscape:showpageshadow="2"
     inkscape:pageopacity="0.0"
     inkscape:pagecheckerboard="0"
     inkscape:deskcolor="#d1d1d1"
     showgrid="false"
     inkscape:zoom="0.4609375"
     inkscape:cx="45.559322"
     inkscape:cy="280.94915"
     inkscape:window-width="1455"
     inkscape:window-height="1027"
     inkscape:window-x="465"
     inkscape:window-y="25"
     inkscape:window-maximized="0"
     inkscape:current-layer="svg134" />
  <!--!Font Awesome Free 6.5.1 by @fontawesome - https://fontawesome.com License - https://fontawesome.com/license/free Copyright 2024 Fonticons, Inc.-->
  <path
     d="m 111.97618,48 a 48,48 0 1 1 96,0 48,48 0 1 1 -96,0 z m 40,304 v 128 c 0,17.7 -14.3,32 -32,32 -17.7,0 -32.000003,-14.3 -32.000003,-32 V 256.9 l -28.6,47.6 c -9.1,15.1 -28.8,20 -43.9,10.9 C 0.37617716,306.3 -4.5238228,286.6 4.5761772,271.5 l 58.2999998,-97 c 17.4,-28.9 48.600003,-46.6 82.300003,-46.6 h 29.7 c 33.7,0 64.9,17.7 82.3,46.6 l 58.3,97 c 9.1,15.1 4.2,34.8 -10.9,43.9 -15.1,9.1 -34.8,4.2 -43.9,-10.9 l -28.7,-47.6 V 480 c 0,17.7 -14.3,32 -32,32 -17.7,0 -32,-14.3 -32,-32 V 352 Z"
     id="path132"
     style="fill:#096f9b;fill-opacity:0.869403" />
</svg>
